# xmcd CD database file
#
# Track frame offsets:
#	150
#	28045
#	64827
#	94284
#	129490
#	178608
#
# Disc length: 2747 seconds
#
# Revision: 0
# Processed by: cddbd v1.5.2PL0 Copyright (c) Steve Scherf et al.
# Submitted via: CDex 1.70beta2
#
DISCID=4e0ab906
DTITLE=Henry Franklin - Tribal Dance
DYEAR=1900
DGENRE=Jazz
TTITLE0=Tribal Dance
TTITLE1=Eric's Tune
TTITLE2=For Penny
TTITLE3=Spring Song
TTITLE4=Cosmos Dwellers
TTITLE5=Prime Mover
EXTD=
EXTT0=
EXTT1=
EXTT2=
EXTT3=
EXTT4=
EXTT5=
PLAYORDER=
